<?xml version="1.0" encoding="UTF-8" standalone="no"?>
<svg
   xmlns:dc="http://purl.org/dc/elements/1.1/"
   xmlns:cc="http://creativecommons.org/ns#"
   xmlns:rdf="http://www.w3.org/1999/02/22-rdf-syntax-ns#"
   xmlns:svg="http://www.w3.org/2000/svg"
   xmlns="http://www.w3.org/2000/svg"
   viewBox="0 0 400 182"
   height="182"
   width="400"
   id="svg2"
   version="1.1">
  <path
     id="path12"
     d="m 26.722227,140.78148 c -2.18049,-1.12152 -2.46305,-1.8536 -2.21089,-5.72811 0.18195,-2.79577 1.4792,-6.46388 3.5,-9.89665 3.49289,-5.93342 18.37385,-21.45444 25.93437,-27.049839 4.97249,-3.68006 8.04623,-9.57663 9.39771,-18.028285 0.74087,-4.633166 1.97536,-5.799505 3.99778,-3.777084 1.23607,1.236067 1.08927,2.592666 -1.0969,10.136669 -5.64504,19.479859 -20.16613,44.813109 -29.8394,52.057329 -4.32637,3.23997 -6.72629,3.80656 -9.68267,2.28597 z m 9.29738,-5.52828 c 5.56119,-5.33147 13.17462,-16.79467 17.72046,-26.6809 6.10054,-13.267359 5.57436,-13.491609 -6.36176,-2.71119 -13.22582,11.94524 -21.81788,25.48488 -20.21785,31.85992 0.82589,3.2906 3.6827,2.4948 8.85915,-2.46783 z m 224.238813,3.8979 c -2.30303,-2.54483 -1.46524,-7.35947 2.23751,-12.85848 4.95527,-7.35915 13.62802,-17.24545 20.44169,-23.30204 4.75505,-4.226709 7.00949,-7.034399 7.72289,-9.618119 0.55413,-2.00689 0.81371,-3.84269 0.57685,-4.07955 -0.23686,-0.23687 -1.86251,0.77416 -3.61254,2.24671 -3.99825,3.3643 -9.03315,3.27888 -9.86329,-0.16733 -0.46278,-1.92116 -1.81632,-0.61083 -9.5393,9.234749 -8.99163,11.46291 -12.11856,13.85796 -15.40478,11.7992 -2.99426,-1.87586 -2.27387,-5.28482 3.3704,-15.949059 3.08631,-5.83127 5.40768,-10.806108 5.15858,-11.055206 -0.88223,-0.882224 -4.34549,1.660226 -8.04596,5.906686 -7.62493,8.749959 -7.84063,8.940059 -8.9198,7.86089 -0.71789,-0.71789 -0.51677,-2.13232 0.65157,-4.58235 2.3141,-4.85271 2.24776,-4.89268 -2.46005,-1.48236 -2.90241,2.10249 -5.30745,3.00627 -8,3.00627 -3.4743,0 -3.84996,-0.25238 -3.84996,-2.58651 v -2.58651 l -4.197,3.08651 c -4.43642,3.26258 -9.4881,4.07071 -10.41107,1.66548 -0.44796,-1.16736 -1.16572,-1.05497 -4.02078,0.62955 -6.60474,3.896899 -15.193,2.20214 -13.94942,-2.75268 0.44535,-1.77441 -0.18747,-1.45481 -3.31807,1.67579 -6.00084,6.000849 -10.78829,5.009349 -9.84298,-2.0385 l 0.55118,-4.10931 -5.06177,4.55096 c -8.65141,7.778359 -10.33011,8.742349 -12.11531,6.957149 -1.35574,-1.355749 -1.3637,-2.062209 -0.0705,-6.260069 3.19177,-10.36108 3.26241,-10.095296 -1.58127,-5.94929 -2.38864,2.04459 -5.04948,3.7204 -5.91298,3.72402 -0.8635,0.004 -2.92,0.90066 -4.57,1.99341 -1.65,1.09275 -4.6875,1.98979 -6.75,1.99341 -3.3593,0.006 -3.75,-0.26035 -3.75,-2.55555 v -2.56213 l -4.37344,3.14077 c -3.02971,2.17577 -5.25727,3.0398 -7.25,2.81213 -2.55239,-0.2916 -2.8597,-0.69708 -2.72699,-3.59812 l 0.14957,-3.26949 -3.64957,2.19895 c -2.00726,1.20942 -4.5372,2.79319 -5.62208,3.51949 -2.8388,1.9005 -6.32022,1.6253 -7.71616,-0.60996 -1.1609,-1.85889 -1.32942,-1.8218 -4.54327,1 -5.15729,4.528129 -9.26809,3.77706 -9.26809,-1.69333 v -3.40986 l -4.966763,2.51684 c -2.73172,1.38427 -5.84957,2.51685 -6.92857,2.51685 -2.90328,0 -5.10325,-2.71868 -5.11534,-6.32143 l -0.01066,-3.17857 -4.44956,4.82476 c -5.5774,6.04773 -8.85763,6.2317 -9.33362,0.5235 -0.3791,-4.54625 4.90861,-16.84826 7.24179,-16.84826 2.10418,0 1.99106,0.822677 -1.01639,7.39183 -1.41851,3.098434 -2.40428,6.158 -2.19061,6.79903 0.21368,0.64104 3.84248,-2.11542 8.06401,-6.125453 4.98797,-4.738086 8.206,-7.087402 9.1906,-6.709576 2.09454,0.80375 1.90987,1.973631 -0.98489,6.239307 -2.33938,3.447262 -3.21863,7.352902 -1.94259,8.628942 0.30658,0.30658 3.51698,-0.40481 7.13422,-1.58086 4.35828,-1.41698 6.847773,-2.81376 7.380083,-4.140747 0.4418,-1.10136 3.91592,-9.202473 7.72026,-18.002473 3.80434,-8.8 7.7295,-18.25 8.72259,-21 2.27311,-6.294591 4.0156,-8.369842 5.65295,-6.732485 0.90907,0.909067 0.5434,2.630009 -1.58451,7.457143 -10.01576,22.720566 -17.56976,41.187822 -18.18138,44.448042 l -0.71334,3.80244 3.90586,-2.89136 c 6.66684,-4.9352 10.58807,-8.952593 12.03852,-12.33378 1.38273,-3.223316 3.64309,-4.230876 4.90628,-2.186987 0.36134,0.584658 -0.01,1.822158 -0.82447,2.75 -1.45713,1.659296 -5.71447,9.591527 -5.71447,10.647147 0,2.47384 16.04779,-4.9799 19.11395,-8.877889 3.06965,-3.902432 9.41092,-6.845538 13.03464,-6.049634 3.98566,0.875396 4.31087,2.229665 1.89108,7.874827 -3.56339,8.313036 -2.22186,9.680326 4.6288,4.717736 2.8519,-2.0659 4.54279,-4.387241 6.00939,-8.249999 2.15462,-5.674852 5.04949,-7.63381 5.98642,-4.051008 0.52193,1.995876 0.52635,1.995884 3.89621,0.0076 6.12938,-3.616425 6.8797,-1.055691 2.4403,8.328403 -4.47122,9.451334 -4.09946,10.628704 2.02566,6.415354 2.76455,-1.90167 5.88675,-3.73063 6.93822,-4.06436 1.05386,-0.33448 2.45764,-2.268122 3.1282,-4.308984 0.66905,-2.036206 3.54624,-8.877206 6.39376,-15.202206 2.84753,-6.325 6.45688,-14.875 8.02079,-19 3.32885,-8.78022 4.9144,-10.978179 6.66009,-9.232485 0.90907,0.909067 0.5434,2.630009 -1.58451,7.457143 -9.95653,22.586187 -17.56761,41.176362 -18.16761,44.374652 l -0.69957,3.72905 4.75677,-3.41418 c 2.61622,-1.8778 6.54913,-5.55414 8.73979,-8.169648 2.19066,-2.615508 5.06989,-5.028258 6.3983,-5.361668 2.79674,-0.701935 5.38932,1.056604 5.38932,3.655551 0,1.801014 -6.85476,7.961585 -8.85872,7.961585 -1.74551,0 -3.49804,4.04324 -2.28034,5.26094 2.173,2.173 10.31133,-2.23207 17.13906,-9.276942 7.67466,-7.918743 11.88894,-10.386939 16.14056,-9.453126 3.99399,0.877227 4.31992,2.229055 1.89911,7.876592 -3.70024,8.632306 -2.54004,9.453136 5.82642,4.122156 5.20789,-3.318385 5.6972,-4.047319 16.5966,-24.724405 6.79567,-12.891961 11.88342,-21.432893 12.88391,-21.628539 2.34582,-0.458728 2.07525,2.187053 -0.67427,6.593196 -4.50524,7.219696 -18.82148,35.282668 -18.49659,36.257354 0.18085,0.542541 1.90279,-0.111455 3.82654,-1.453325 3.49534,-2.438104 4.95683,-2.915191 8.24772,-2.692384 2.81972,0.190908 2.10715,2.600244 -4.36218,14.749203 -3.36169,6.313039 -5.78644,11.791239 -5.38832,12.173769 1.05976,1.01827 19.01828,-18.291299 23.53127,-25.301563 4.85784,-7.545954 5.70291,-8.502926 7.50866,-8.502926 2.04896,0 1.81686,2.690899 -0.51452,5.965023 -2.32969,3.271737 -4.27237,8.034977 -3.27706,8.034977 0.38408,0 3.47762,-2.754573 6.87451,-6.121274 8.31574,-8.241818 10.28003,-6.972475 6.37764,4.121274 -2.13748,6.07644 -2.53415,9.44816 -1,8.5 0.55,-0.33992 1,-0.24972 1,0.20044 0,0.45015 -0.85774,1.35414 -1.90609,2.00884 -1.04835,0.65471 -3.53696,4.700449 -5.53024,8.990549 -12.33188,26.54167 -15.44257,31.51597 -21.21754,33.92891 -4.38609,1.83262 -5.70887,1.73291 -7.80994,-0.58875 z m 9.13781,-6.28999 c 5.50079,-5.83029 16.87064,-25.61607 16.08119,-27.98444 -0.19616,-0.58846 -3.35061,1.73078 -7.0099,5.15386 -6.41155,5.99769 -12.9341,15.76532 -14.74567,22.08189 -1.46016,5.0913 1.24093,5.44769 5.67438,0.74869 z M 145.18464,84.186282 c 3.84532,-3.932697 4.53212,-5.075171 3.05096,-5.075171 -1.0513,0 -4.07188,2.301149 -6.71241,5.113664 -8.41567,8.963816 -5.10683,8.929026 3.66145,-0.03849 z m 85,0 c 3.84532,-3.932697 4.53212,-5.075171 3.05096,-5.075171 -1.0513,0 -4.07188,2.301149 -6.71241,5.113664 -8.41567,8.963816 -5.10683,8.929026 3.66145,-0.03849 z m -20.46241,-1.385146 c 0,-0.55 -0.9,-0.185511 -2,0.809975 -1.1,0.995486 -2,2.259975 -2,2.80998 0,0.55 0.9,0.18551 2,-0.80998 1.1,-0.995486 2,-2.259975 2,-2.809975 z m 155.94961,20.749274 c -1.3712,-1.6522 -1.26,-1.99501 5.41369,-16.689299 1.43631,-3.1625 2.20356,-5.75 1.705,-5.75 -0.49856,0 -4.04616,3.441077 -7.88355,7.64684 -5.11147,5.60214 -7.42722,7.4741 -8.66055,7.00082 -1.28755,-0.49407 -1.52847,-1.35177 -1.02439,-3.64683 0.89296,-4.06562 0.0123,-3.77228 -2.99982,0.99917 -2.53345,4.01325 -5.5,5.34019 -5.5,2.46016 0,-0.84691 0.93139,-3.36552 2.06976,-5.5969 1.13837,-2.23139 1.85935,-4.267481 1.60219,-4.524648 -0.25717,-0.257168 -2.09436,-0.162393 -4.08264,0.210611 -2.47933,0.465127 -4.29356,1.663497 -5.77478,3.814487 -4.89957,7.11499 -10.56863,9.60415 -13.00142,5.70863 -1.17497,-1.88143 -1.30319,-1.86943 -5.34633,0.5 -4.63302,2.71513 -8.64651,3.12093 -10.36675,1.04817 -0.62968,-0.75871 -2.51864,-1.65423 -4.19769,-1.99004 -3.97236,-0.79448 -3.71017,-4.14843 0.32014,-4.09532 2.14176,0.0282 3.00955,-0.72327 4.40268,-3.81268 0.95432,-2.116315 3.06064,-4.963181 4.6807,-6.326375 2.78645,-2.344641 3.04683,-2.386903 4.81986,-0.782327 2.45901,2.225369 2.36603,3.176443 -0.34868,3.566681 -1.36704,0.196512 -3.09338,1.859701 -4.48355,4.319551 -4.18711,7.40891 -2.66152,8.27965 5.6942,3.25 3.85278,-2.31914 6.27466,-4.74225 8.45575,-8.460058 3.66014,-6.238893 4.2748,-6.847792 7.73423,-7.661733 3.24676,-0.763902 5.82233,1.422787 5.82233,4.94322 0,2.166666 0.43137,2.428571 4,2.428571 2.2,0 4,-0.401855 4,-0.893011 0,-2.062957 3.10464,-1.99833 3.8737,0.08064 0.52879,1.429458 1.04044,1.760321 1.52064,0.983345 0.93266,-1.509085 6.32036,-1.526875 6.82181,-0.02253 0.21176,0.635273 2.72153,-0.928669 5.61671,-3.5 9.06728,-8.053025 10.13983,-5.474059 3.75338,9.024996 -2.56412,5.82126 -4.48949,10.75664 -4.27861,10.96752 0.21088,0.21088 3.71274,-2.33014 7.78191,-5.64672 4.32821,-3.52769 7.56394,-5.53379 7.79718,-4.83409 0.45646,1.36939 -15.53635,16.839849 -17.40843,16.839849 -0.67837,0 -1.81627,-0.70232 -2.52867,-1.5607 z M 337.71421,84.096144 c -0.5843,-1.091768 -1.41318,-1.985033 -1.84196,-1.985033 -1.16239,0 -4.15408,6.73654 -4.12297,9.28393 0.0244,2.00046 0.3676,1.84976 3.52717,-1.5489 2.92165,-3.14273 3.32454,-4.09303 2.43776,-5.749997 z m 4.00801,-4.603067 c 0,-0.825 -0.45,-1.221885 -1,-0.881966 -0.55,0.339919 -1,1.293034 -1,2.118034 0,0.825 0.45,1.221885 1,0.881966 0.55,-0.339919 1,-1.293034 1,-2.118034 z M 123.72223,73.311111 c 0,-2.105741 1.84494,-4.2 3.7,-4.2 1.63284,0 1.69952,3.200485 0.1,4.8 -1.77562,1.775618 -3.8,1.455979 -3.8,-0.6 z M 64.722227,68.61492 c 0,-1.701243 2.2431,-4.503809 3.60473,-4.503809 2.5409,0 1.29181,4.443681 -1.35473,4.819551 -1.2375,0.175753 -2.25,0.03367 -2.25,-0.315742 z"
     style="fill:#ffffff" />
</svg>
